<svg xmlns="http://www.w3.org/2000/svg" width="48" height="48" viewBox="0 0 48 48">
    <g fill="none" fill-rule="evenodd">
        <g fill="#313738" fill-rule="nonzero">
            <g>
                <g>
                    <path d="M24 0c13.255 0 24 10.745 24 24S37.255 48 24 48 0 37.255 0 24 10.745 0 24 0zm0 2C11.85 2 2 11.85 2 24s9.85 22 22 22 22-9.85 22-22S36.15 2 24 2z" transform="translate(-696 -409) translate(420 357) translate(276 52)"/>
                    <path d="M35 32c.552 0 1 .448 1 1 0 .49-.354.9-.82.984L35 34H13c-.552 0-1-.448-1-1 0-.49.354-.9.82-.984L13 32h22z" transform="translate(-696 -409) translate(420 357) translate(276 52)"/>
                    <g>
                        <path d="M9 0c.552 0 1 .448 1 1 0 .49-.354.9-.82.984L9 2H1c-.552 0-1-.448-1-1C0 .51.354.1.82.016L1 0h8zM27 0c.552 0 1 .448 1 1 0 .49-.354.9-.82.984L27 2h-8c-.552 0-1-.448-1-1 0-.49.354-.9.82-.984L19 0h8z" transform="translate(-696 -409) translate(420 357) translate(276 52) translate(10 18)"/>
                    </g>
                </g>
            </g>
        </g>
    </g>
</svg>
